<svg xmlns="http://www.w3.org/2000/svg" xmlns:xlink="http://www.w3.org/1999/xlink" width="1080" zoomAndPan="magnify" viewBox="0 0 810 809.999993" height="1080" preserveAspectRatio="xMidYMid meet" version="1.0"><defs><clipPath id="395f74e6e6"><path d="M 750.171875 155.21875 L 810 155.21875 L 810 810 L 750.171875 810 Z M 750.171875 155.21875 " clip-rule="nonzero"/></clipPath><clipPath id="87ac5f1a9c"><path d="M 780.085938 155.21875 C 796.605469 155.21875 810 168.613281 810 185.132812 L 810 780.085938 C 810 796.605469 796.605469 810 780.085938 810 C 763.566406 810 750.171875 796.605469 750.171875 780.085938 L 750.171875 185.132812 C 750.171875 168.613281 763.566406 155.21875 780.085938 155.21875 Z M 780.085938 155.21875 " clip-rule="nonzero"/></clipPath><clipPath id="4456b5ab5e"><path d="M 155.222656 750.167969 L 810 750.167969 L 810 809.996094 L 155.222656 809.996094 Z M 155.222656 750.167969 " clip-rule="nonzero"/></clipPath><clipPath id="44272c8eda"><path d="M 155.222656 780.082031 C 155.222656 763.558594 168.613281 750.167969 185.136719 750.167969 L 780.085938 750.167969 C 796.609375 750.167969 810 763.558594 810 780.082031 C 810 796.601562 796.609375 809.996094 780.085938 809.996094 L 185.136719 809.996094 C 168.613281 809.996094 155.222656 796.601562 155.222656 780.082031 Z M 155.222656 780.082031 " clip-rule="nonzero"/></clipPath><clipPath id="5a1d7a3d49"><path d="M 12 12 L 810 12 L 810 810 L 12 810 Z M 12 12 " clip-rule="nonzero"/></clipPath><clipPath id="04d310958f"><path d="M 0.00390625 42.277344 L 42.28125 -0.00390625 L 849.847656 807.5625 L 807.566406 849.84375 Z M 0.00390625 42.277344 " clip-rule="nonzero"/></clipPath><clipPath id="e680283335"><path d="M 21.140625 21.136719 C 26.75 15.53125 34.351562 12.382812 42.28125 12.382812 C 50.210938 12.382812 57.816406 15.53125 63.421875 21.136719 L 828.707031 786.421875 C 834.316406 792.03125 837.464844 799.632812 837.464844 807.5625 C 837.464844 815.492188 834.316406 823.097656 828.707031 828.703125 C 823.101562 834.308594 815.496094 837.460938 807.566406 837.460938 C 799.636719 837.460938 792.035156 834.308594 786.425781 828.703125 L 21.140625 63.417969 C 15.535156 57.8125 12.386719 50.207031 12.386719 42.277344 C 12.386719 34.347656 15.535156 26.746094 21.140625 21.136719 Z M 21.140625 21.136719 " clip-rule="nonzero"/></clipPath></defs><g clip-path="url(#395f74e6e6)"><g clip-path="url(#87ac5f1a9c)"><path fill="#ffffff" d="M 750.171875 155.21875 L 810 155.21875 L 810 810 L 750.171875 810 Z M 750.171875 155.21875 " fill-opacity="1" fill-rule="nonzero"/></g></g><g clip-path="url(#4456b5ab5e)"><g clip-path="url(#44272c8eda)"><path fill="#ffffff" d="M 155.222656 809.996094 L 155.222656 750.167969 L 810 750.167969 L 810 809.996094 Z M 155.222656 809.996094 " fill-opacity="1" fill-rule="nonzero"/></g></g><g clip-path="url(#5a1d7a3d49)"><g clip-path="url(#04d310958f)"><g clip-path="url(#e680283335)"><path fill="#ffffff" d="M 0.00390625 42.277344 L 42.28125 -0.00390625 L 849.847656 807.5625 L 807.566406 849.84375 Z M 0.00390625 42.277344 " fill-opacity="1" fill-rule="nonzero"/></g></g></g></svg>